<svg xmlns="http://www.w3.org/2000/svg" viewBox="0 0 550 100">
  <style>
    .cls-1 {
      fill: none;
      stroke: #2c3e50;
      stroke-width: 3px;
      stroke-linecap: round;
      stroke-linejoin: round;
      stroke-dasharray: 2000;
      stroke-dashoffset: 2000;
      animation: write-text 4s ease-in-out forwards;
    }
    @keyframes write-text {
      to {
        stroke-dashoffset: 0;
      }
    }
  </style>
  <path class="cls-1" d="M10 50 Q20 30 30 50 L40 50 M60 50 Q70 30 80 50 L90 50 M110 50 Q120 30 130 50 L140 50 M160 50 Q170 30 180 50 L190 50 M210 50 Q220 30 230 50 L240 50 M260 50 Q270 30 280 50 L290 50 M310 50 Q320 30 330 50 L340 50 M360 50 Q370 30 380 50 L390 50 M410 50 Q420 30 430 50 L440 50 M460 50 Q470 30 480 50 L490 50 M510 50 Q520 30 530 50 L540 50"/>
</svg>
